  0
SECTION
  2
HEADER
  9
$ACADVER
  1
AC1009
  9
$DWGCODEPAGE
  3
ansi_1252
  9
$INSBASE
 10
0.0
 20
0.0
 30
0.0
  9
$EXTMIN
 10
1.000000000000000E+20
 20
1.000000000000000E+20
 30
1.000000000000000E+20
  9
$EXTMAX
 10
-1.000000000000000E+20
 20
-1.000000000000000E+20
 30
-1.000000000000000E+20
  9
$LIMMIN
 10
0.0
 20
0.0
  9
$LIMMAX
 10
12.0
 20
9.0
  9
$ORTHOMODE
 70
     0
  9
$REGENMODE
 70
     1
  9
$FILLMODE
 70
     1
  9
$QTEXTMODE
 70
     0
  9
$MIRRTEXT
 70
     1
  9
$DRAGMODE
 70
     2
  9
$LTSCALE
 40
25.4
  9
$OSMODE
 70
    37
  9
$ATTMODE
 70
     1
  9
$TEXTSIZE
 40
0.2
  9
$TRACEWID
 40
0.05
  9
$TEXTSTYLE
  7
STANDARD
  9
$CLAYER
  8
0
  9
$CELTYPE
  6
BYLAYER
  9
$CECOLOR
 62
   256
  9
$DIMSCALE
 40
1.0
  9
$DIMASZ
 40
0.18
  9
$DIMEXO
 40
0.0625
  9
$DIMDLI
 40
0.38
  9
$DIMRND
 40
0.0
  9
$DIMDLE
 40
0.0
  9
$DIMEXE
 40
0.18
  9
$DIMTP
 40
0.0
  9
$DIMTM
 40
0.0
  9
$DIMTXT
 40
0.18
  9
$DIMCEN
 40
0.09
  9
$DIMTSZ
 40
0.0
  9
$DIMTOL
 70
     0
  9
$DIMLIM
 70
     0
  9
$DIMTIH
 70
     1
  9
$DIMTOH
 70
     1
  9
$DIMSE1
 70
     0
  9
$DIMSE2
 70
     0
  9
$DIMTAD
 70
     0
  9
$DIMZIN
 70
     0
  9
$DIMBLK
  1

  9
$DIMASO
 70
     1
  9
$DIMSHO
 70
     1
  9
$DIMPOST
  1

  9
$DIMAPOST
  1

  9
$DIMALT
 70
     0
  9
$DIMALTD
 70
     2
  9
$DIMALTF
 40
25.4
  9
$DIMLFAC
 40
1.0
  9
$DIMTOFL
 70
     0
  9
$DIMTVP
 40
0.0
  9
$DIMTIX
 70
     0
  9
$DIMSOXD
 70
     0
  9
$DIMSAH
 70
     0
  9
$DIMBLK1
  1

  9
$DIMBLK2
  1

  9
$DIMSTYLE
  2
STANDARD
  9
$DIMCLRD
 70
     0
  9
$DIMCLRE
 70
     0
  9
$DIMCLRT
 70
     0
  9
$DIMTFAC
 40
1.0
  9
$DIMGAP
 40
0.09
  9
$LUNITS
 70
     2
  9
$LUPREC
 70
     4
  9
$SKETCHINC
 40
0.1
  9
$FILLETRAD
 40
0.5
  9
$AUNITS
 70
     0
  9
$AUPREC
 70
     0
  9
$MENU
  1
.
  9
$ELEVATION
 40
0.0
  9
$PELEVATION
 40
0.0
  9
$THICKNESS
 40
0.0
  9
$LIMCHECK
 70
     0
  9
$CHAMFERA
 40
0.5
  9
$CHAMFERB
 40
0.5
  9
$SKPOLY
 70
     0
  9
$TDCREATE
 40
2458761.653442176
  9
$TDUPDATE
 40
2458761.653442188
  9
$TDINDWG
 40
0.0000000116
  9
$TDUSRTIMER
 40
0.0000000116
  9
$USRTIMER
 70
     1
  9
$ANGBASE
 50
0.0
  9
$ANGDIR
 70
     0
  9
$PDMODE
 70
     0
  9
$PDSIZE
 40
0.0
  9
$PLINEWID
 40
0.0
  9
$COORDS
 70
     1
  9
$SPLFRAME
 70
     0
  9
$SPLINETYPE
 70
     6
  9
$SPLINESEGS
 70
     8
  9
$ATTDIA
 70
     0
  9
$ATTREQ
 70
     1
  9
$HANDLING
 70
     1
  9
$HANDSEED
  5
1F4
  9
$SURFTAB1
 70
     6
  9
$SURFTAB2
 70
     6
  9
$SURFTYPE
 70
     6
  9
$SURFU
 70
     6
  9
$SURFV
 70
     6
  9
$UCSNAME
  2

  9
$UCSORG
 10
0.0
 20
0.0
 30
0.0
  9
$UCSXDIR
 10
1.0
 20
0.0
 30
0.0
  9
$UCSYDIR
 10
0.0
 20
1.0
 30
0.0
  9
$PUCSNAME
  2

  9
$PUCSORG
 10
0.0
 20
0.0
 30
0.0
  9
$PUCSXDIR
 10
1.0
 20
0.0
 30
0.0
  9
$PUCSYDIR
 10
0.0
 20
1.0
 30
0.0
  9
$USERI1
 70
     0
  9
$USERI2
 70
     0
  9
$USERI3
 70
     0
  9
$USERI4
 70
     0
  9
$USERI5
 70
     0
  9
$USERR1
 40
0.0
  9
$USERR2
 40
0.0
  9
$USERR3
 40
0.0
  9
$USERR4
 40
0.0
  9
$USERR5
 40
0.0
  9
$WORLDVIEW
 70
     1
  9
$SHADEDGE
 70
     3
  9
$SHADEDIF
 70
    70
  9
$TILEMODE
 70
     1
  9
$MAXACTVP
 70
    64
  9
$PLIMCHECK
 70
     0
  9
$PEXTMIN
 10
1.000000000000000E+20
 20
1.000000000000000E+20
 30
1.000000000000000E+20
  9
$PEXTMAX
 10
-1.000000000000000E+20
 20
-1.000000000000000E+20
 30
-1.000000000000000E+20
  9
$PLIMMIN
 10
0.0
 20
0.0
  9
$PLIMMAX
 10
12.0
 20
9.0
  9
$UNITMODE
 70
     0
  9
$VISRETAIN
 70
     1
  9
$PLINEGEN
 70
     0
  9
$PSLTSCALE
 70
     1
  0
ENDSEC
  0
SECTION
  2
TABLES
  0
TABLE
  2
VPORT
 70
     1
  0
VPORT
  2
*ACTIVE
 70
     0
 10
0.0
 20
0.0
 11
1.0
 21
1.0
 12
10.42990654205607
 22
4.5
 13
0.0
 23
0.0
 14
0.5
 24
0.5
 15
0.5
 25
0.5
 16
0.0
 26
0.0
 36
1.0
 17
0.0
 27
0.0
 37
0.0
 40
9.0
 41
1.972972972850329
 42
50.0
 43
0.0
 44
0.0
 50
0.0
 51
0.0
 71
     0
 72
   100
 73
     1
 74
     3
 75
     0
 76
     0
 77
     0
 78
     0
  0
ENDTAB
  0
TABLE
  2
LTYPE
 70
    12
  0
LTYPE
  2
CONTINUOUS
 70
     0
  3
Solid line
 72
    65
 73
     0
 40
0.0
  0
LTYPE
  2
KÖRPER
 70
     0
  3
__________________
 72
    65
 73
     0
 40
0.0
  0
LTYPE
  2
ZWEISTRICHPUNKT
 70
     0
  3
__ __ . __ __ . __
 72
    65
 73
     6
 40
0.875
 49
0.25
 49
-0.125
 49
0.25
 49
-0.125
 49
0.0
 49
-0.125
  0
LTYPE
  2
STRICHPUNKT_LANG
 70
     0
  3
___ _ ___ _ ___ _ 
 72
    65
 73
     4
 40
1.125
 49
0.75
 49
-0.125
 49
0.125
 49
-0.125
  0
LTYPE
  2
STRICHPUNKT
 70
     0
  3
_._._._._._._._._.
 72
    65
 73
     4
 40
0.5
 49
0.25
 49
-0.125
 49
0.0
 49
-0.125
  0
LTYPE
  2
STRICHLINIE_LANG
 70
     0
  3
_ _ _ _ _ _ _ _ _ 
 72
    65
 73
     2
 40
0.375
 49
0.25
 49
-0.125
  0
LTYPE
  2
STRICHZWEIPUNKT_KUR
 70
     0
  3
__..__..__..__..__
 72
    65
 73
     6
 40
0.625
 49
0.25
 49
-0.125
 49
0.0
 49
-0.125
 49
0.0
 49
-0.125
  0
LTYPE
  2
GEPUNKTET
 70
     0
  3
..................
 72
    65
 73
     2
 40
0.125
 49
0.0
 49
-0.125
  0
LTYPE
  2
STRICHLINIE
 70
     0
  3
__ __ __ __ __ __ 
 72
    65
 73
     2
 40
0.1875
 49
0.125
 49
-0.0625
  0
LTYPE
  2
STRICHZWEIPUNKT
 70
     0
  3
___ _ _ ___ _ _ __
 72
    65
 73
     6
 40
1.25
 49
0.625
 49
-0.125
 49
0.125
 49
-0.125
 49
0.125
 49
-0.125
  0
LTYPE
  2
STRICHZWEIPUNKT_LAN
 70
     0
  3
________ _ _ _____
 72
    65
 73
     6
 40
1.4675
 49
1.0
 49
-0.0725
 49
0.125
 49
-0.0725
 49
0.125
 49
-0.0725
  0
LTYPE
  2
STRICHLINIE_KURZ
 70
     0
  3
_ _ _ _ _ _ _ _ _ 
 72
    65
 73
     2
 40
0.145
 49
0.0725
 49
-0.0725
  0
ENDTAB
  0
TABLE
  2
LAYER
 70
    57
  0
LAYER
  2
0
 70
     0
 62
     7
  6
CONTINUOUS
  0
LAYER
  2
SCANLAB_DRIVER
 70
     0
 62
    -7
  6
KÖRPER
  0
LAYER
  2
SCANLAB_DRIVER_PRINT
 70
     0
 62
     7
  6
KÖRPER
  0
LAYER
  2
SCANLAB_DRIVER_15_POL_VERL
 70
     0
 62
     7
  6
KÖRPER
  0
LAYER
  2
SCANLAB_DRIVER_R_CKSEITE
 70
     0
 62
     7
  6
KÖRPER
  0
LAYER
  2
SCANLAB_DRIVER_SCHRAUBEN_L
 70
     0
 62
    -7
  6
KÖRPER
  0
LAYER
  2
SCANLAB_DRIVER_TREIBER_ELE
 70
     0
 62
     7
  6
KÖRPER
  0
LAYER
  2
SCHROFF_GEH_USE
 70
     0
 62
    -7
  6
KÖRPER
  0
LAYER
  2
SCHROFF_GEH_USE_VORNE
 70
     0
 62
    -7
  6
KÖRPER
  0
LAYER
  2
SCHROFF_GEH_USE_HINTEN
 70
     0
 62
     7
  6
KÖRPER
  0
LAYER
  2
SCHROFF_GEH_USE_TOP
 70
     0
 62
     7
  6
KÖRPER
  0
LAYER
  2
SCHROFF_GEH_USE_TOP_TOP_ZU
 70
     0
 62
     7
  6
KÖRPER
  0
LAYER
  2
SCHROFF_GEH_USE_TOP_TOP_OF
 70
     0
 62
    -7
  6
KÖRPER
  0
LAYER
  2
SCHROFF_GEH_USE_BOTTOM
 70
     0
 62
     7
  6
KÖRPER
  0
LAYER
  2
SCHROFF_GEH_USE_BOTTOM_BOT
 70
     0
 62
    -7
  6
KÖRPER
  0
LAYER
  2
SCHROFF_GEH_USE_HILFSBLOCK
 70
     0
 62
    -7
  6
KÖRPER
  0
LAYER
  2
SCHROFF_GEH_USE_TOP_OFFEN
 70
     0
 62
    -7
  6
KÖRPER
  0
LAYER
  2
SCHROFF_GEH_USE_M3_SCHRAUB
 70
     0
 62
    -7
  6
KÖRPER
  0
LAYER
  2
SK434
 70
     0
 62
    -7
  6
KÖRPER
  0
LAYER
  2
BOTTOM_PLATE
 70
     0
 62
    -7
  6
KÖRPER
  0
LAYER
  2
ELKO
 70
     0
 62
    -7
  6
KÖRPER
  0
LAYER
  2
FAN
 70
     0
 62
    -7
  6
KÖRPER
  0
LAYER
  2
FAN_GITTER
 70
     0
 62
     7
  6
KÖRPER
  0
LAYER
  2
DB15
 70
     0
 62
    -7
  6
KÖRPER
  0
LAYER
  2
FRONT
 70
     0
 62
    -7
  6
KÖRPER
  0
LAYER
  2
FRONT_3MM_LED
 70
     0
 62
     7
  6
KÖRPER
  0
LAYER
  2
FRONT_TEXT
 70
     0
 62
    -7
  6
KÖRPER
  0
LAYER
  2
FRONT_TEXT_REINER_TEXT
 70
     0
 62
    -7
  6
KÖRPER
  0
LAYER
  2
FRONT_BNC_3D
 70
     0
 62
     7
  6
KÖRPER
  0
LAYER
  2
FRONT_BNC_STECKER
 70
     0
 62
    -7
  6
KÖRPER
  0
LAYER
  2
FRONT_SWITCH_1852_0104_3D_
 70
     0
 62
     7
  6
KÖRPER
  0
LAYER
  2
FRONT_DP_9_PASSEND
 70
     0
 62
    -7
  6
KÖRPER
  0
LAYER
  2
FRONT_DB_9_ORIGINAL_PASSEN
 70
     0
 62
    -7
  6
KÖRPER
  0
LAYER
  2
15_POL_MALE_90_61801523122
 70
     0
 62
    -7
  6
KÖRPER
  0
LAYER
  2
9_POL_MALE_61800925023_
 70
     0
 62
    -7
  6
KÖRPER
  0
LAYER
  2
FRONT_MIT_AUSSCHNITTEN
 70
     0
 62
    -7
  6
KÖRPER
  0
LAYER
  2
FRONT_MIT_AUSSCHNITTEN_FRO
 70
     0
 62
     7
  6
KÖRPER
  0
LAYER
  2
2D_ANSICHT_1_FRONT
 70
     0
 62
    -7
  6
KÖRPER
  0
LAYER
  2
2D_ANSICHT_1_FRONT_DIMENSI
 70
     0
 62
    -7
  6
KÖRPER
  0
LAYER
  2
2D_ANSICHT_1_FRONT_DRAWING
 70
     0
 62
     7
  6
KÖRPER
  0
LAYER
  2
2D_ANSICHT_1_FRONT_2D_ANSI
 70
     0
 62
     7
  6
KÖRPER
  0
LAYER
  2
2D_ANSICHT_2_LEFT
 70
     0
 62
    -7
  6
KÖRPER
  0
LAYER
  2
2D_ANSICHT_2_LEFT_DIMENSIO
 70
     0
 62
     7
  6
KÖRPER
  0
LAYER
  2
2D_ANSICHT_2_LEFT_DRAWING_
 70
     0
 62
     7
  6
KÖRPER
  0
LAYER
  2
2D_ANSICHT_2_LEFT_TITLE
 70
     0
 62
     7
  6
KÖRPER
  0
LAYER
  2
2D_ANSICHT_3_BACK
 70
     0
 62
    -7
  6
KÖRPER
  0
LAYER
  2
2D_ANSICHT_3_BACK_DIMENSIO
 70
     0
 62
     7
  6
KÖRPER
  0
LAYER
  2
2D_ANSICHT_3_BACK_DRAWING_
 70
     0
 62
     7
  6
KÖRPER
  0
LAYER
  2
2D_ANSICHT_3_BACK_TITLE
 70
     0
 62
     7
  6
KÖRPER
  0
LAYER
  2
2D_ANSICHT_4_PLATE
 70
     0
 62
     7
  6
KÖRPER
  0
LAYER
  2
2D_ANSICHT_4_PLATE_TITLE_B
 70
     0
 62
     7
  6
KÖRPER
  0
LAYER
  2
2D_ANSICHT_4_PLATE_DIMENSI
 70
     0
 62
     7
  6
KÖRPER
  0
LAYER
  2
2D_ANSICHT_4_PLATE_DRAWING
 70
     0
 62
     7
  6
KÖRPER
  0
LAYER
  2
THORLABS_NETZTEIL
 70
     0
 62
    -7
  6
KÖRPER
  0
LAYER
  2
VERBINDUNGEN
 70
     0
 62
    -7
  6
KÖRPER
  0
LAYER
  2
GALVO
 70
     0
 62
    -7
  6
KÖRPER
  0
LAYER
  2
DEFPOINTS
 70
     0
 62
     7
  6
CONTINUOUS
  0
ENDTAB
  0
TABLE
  2
STYLE
 70
     1
  0
STYLE
  2
STANDARD
 70
     0
 40
0.0
 41
1.0
 50
0.0
 71
     0
 42
0.2
  3
txt
  4

  0
ENDTAB
  0
TABLE
  2
VIEW
 70
     0
  0
ENDTAB
  0
TABLE
  2
UCS
 70
     0
  0
ENDTAB
  0
TABLE
  2
APPID
 70
     1
  0
APPID
  2
ACAD
 70
     0
  0
ENDTAB
  0
TABLE
  2
DIMSTYLE
 70
     1
  0
DIMSTYLE
  2
STANDARD
 70
     0
  3

  4

  5

  6

  7

 40
1.0
 41
0.18
 42
0.0625
 43
0.38
 44
0.18
 45
0.0
 46
0.0
 47
0.0
 48
0.0
140
0.18
141
0.09
142
0.0
143
25.4
144
1.0
145
0.0
146
1.0
147
0.09
 71
     0
 72
     0
 73
     1
 74
     1
 75
     0
 76
     0
 77
     0
 78
     0
170
     0
171
     2
172
     0
173
     0
174
     0
175
     0
176
     0
177
     0
178
     0
  0
ENDTAB
  0
ENDSEC
  0
SECTION
  2
BLOCKS
  0
BLOCK
  8
0
  2
$MODEL_SPACE
 70
     0
 10
0.0
 20
0.0
 30
0.0
  3
$MODEL_SPACE
  1

  0
ENDBLK
  5
21
  8
0
  0
BLOCK
 67
     1
  8
0
  2
$PAPER_SPACE
 70
     0
 10
0.0
 20
0.0
 30
0.0
  3
$PAPER_SPACE
  1

  0
ENDBLK
  5
1D
 67
     1
  8
0
  0
BLOCK
  8
0
  2
*D1
 70
     1
 10
0.0
 20
0.0
 30
0.0
  3
*D1
  1

  0
LINE
  5
B4
  8
2D_ANSICHT_4_PLATE_DIMENSI
  6
KÖRPER
 62
     0
 10
56.01447485454349
 20
141.0580045266847
 30
0.0
 11
60.66384875105976
 21
141.0580045266847
 31
0.0
  0
LINE
  5
B5
  8
2D_ANSICHT_4_PLATE_DIMENSI
  6
KÖRPER
 62
     0
 10
46.61447485454348
 20
156.0580045266847
 30
0.0
 11
60.66384875105976
 21
156.0580045266847
 31
0.0
  0
LINE
  5
B6
  8
2D_ANSICHT_4_PLATE_DIMENSI
  6
KÖRPER
 62
     0
 10
60.48384875105976
 20
141.2380045266847
 30
0.0
 11
60.48384875105976
 21
146.8471670266847
 31
0.0
  0
LINE
  5
B7
  8
2D_ANSICHT_4_PLATE_DIMENSI
  6
KÖRPER
 62
     0
 10
60.48384875105976
 20
155.8780045266847
 30
0.0
 11
60.48384875105976
 21
150.2688420266847
 31
0.0
  0
SOLID
  5
B8
  8
2D_ANSICHT_4_PLATE_DIMENSI
 62
     0
 10
60.45384875105976
 20
141.2380045266847
 30
0.0
 11
60.51384875105976
 21
141.2380045266847
 31
0.0
 12
60.48384875105976
 22
141.0580045266847
 32
0.0
 13
60.48384875105976
 23
141.0580045266847
 33
0.0
  0
SOLID
  5
B9
  8
2D_ANSICHT_4_PLATE_DIMENSI
 62
     0
 10
60.51384875105976
 20
155.8780045266847
 30
0.0
 11
60.45384875105976
 21
155.8780045266847
 31
0.0
 12
60.48384875105976
 22
156.0580045266847
 32
0.0
 13
60.48384875105976
 23
156.0580045266847
 33
0.0
  0
TEXT
  5
BA
  8
2D_ANSICHT_4_PLATE_DIMENSI
 62
     0
 10
57.56761125105977
 20
146.9863795266847
 30
0.0
 40
3.175
  1
30
  0
POINT
  5
BB
  8
DEFPOINTS
 62
     0
 10
55.95197485454349
 20
141.0580045266847
 30
0.0
  0
POINT
  5
BC
  8
DEFPOINTS
 62
     0
 10
46.55197485454348
 20
156.0580045266847
 30
0.0
  0
POINT
  5
BD
  8
DEFPOINTS
 62
     0
 10
60.48384875105976
 20
156.0580045266847
 30
0.0
  0
ENDBLK
  5
BF
  8
0
  0
BLOCK
  8
0
  2
*D2
 70
     1
 10
0.0
 20
0.0
 30
0.0
  3
*D2
  1

  0
LINE
  5
C3
  8
2D_ANSICHT_4_PLATE_DIMENSI
  6
KÖRPER
 62
     0
 10
56.01447485454349
 20
141.0580045266847
 30
0.0
 11
65.19572204257096
 21
141.0580045266847
 31
0.0
  0
LINE
  5
C4
  8
2D_ANSICHT_4_PLATE_DIMENSI
  6
KÖRPER
 62
     0
 10
39.61447485454348
 20
188.5580045266847
 30
0.0
 11
65.19572204257096
 21
188.5580045266847
 31
0.0
  0
LINE
  5
C5
  8
2D_ANSICHT_4_PLATE_DIMENSI
  6
KÖRPER
 62
     0
 10
65.01572204257096
 20
141.2380045266847
 30
0.0
 11
65.01572204257096
 21
163.0971670266847
 31
0.0
  0
LINE
  5
C6
  8
2D_ANSICHT_4_PLATE_DIMENSI
  6
KÖRPER
 62
     0
 10
65.01572204257096
 20
188.3780045266847
 30
0.0
 11
65.01572204257096
 21
166.5188420266847
 31
0.0
  0
SOLID
  5
C7
  8
2D_ANSICHT_4_PLATE_DIMENSI
 62
     0
 10
64.98572204257096
 20
141.2380045266847
 30
0.0
 11
65.04572204257096
 21
141.2380045266847
 31
0.0
 12
65.01572204257096
 22
141.0580045266847
 32
0.0
 13
65.01572204257096
 23
141.0580045266847
 33
0.0
  0
SOLID
  5
C8
  8
2D_ANSICHT_4_PLATE_DIMENSI
 62
     0
 10
65.04572204257096
 20
188.3780045266847
 30
0.0
 11
64.98572204257096
 21
188.3780045266847
 31
0.0
 12
65.01572204257096
 22
188.5580045266847
 32
0.0
 13
65.01572204257096
 23
188.5580045266847
 33
0.0
  0
TEXT
  5
C9
  8
2D_ANSICHT_4_PLATE_DIMENSI
 62
     0
 10
61.84072204257096
 20
163.2363795266847
 30
0.0
 40
3.175
  1
95
  0
POINT
  5
CA
  8
DEFPOINTS
 62
     0
 10
55.95197485454349
 20
141.0580045266847
 30
0.0
  0
POINT
  5
CB
  8
DEFPOINTS
 62
     0
 10
39.55197485454348
 20
188.5580045266847
 30
0.0
  0
POINT
  5
CC
  8
DEFPOINTS
 62
     0
 10
65.01572204257096
 20
188.5580045266847
 30
0.0
  0
ENDBLK
  5
CE
  8
0
  0
BLOCK
  8
0
  2
*D3
 70
     1
 10
0.0
 20
0.0
 30
0.0
  3
*D3
  1

  0
LINE
  5
D2
  8
2D_ANSICHT_4_PLATE_DIMENSI
  6
KÖRPER
 62
     0
 10
56.01447485454349
 20
141.0580045266847
 30
0.0
 11
69.26506231518358
 21
141.0580045266847
 31
0.0
  0
LINE
  5
D3
  8
2D_ANSICHT_4_PLATE_DIMENSI
  6
KÖRPER
 62
     0
 10
46.76447485454348
 20
210.5580045266847
 30
0.0
 11
69.26506231518358
 21
210.5580045266847
 31
0.0
  0
LINE
  5
D4
  8
2D_ANSICHT_4_PLATE_DIMENSI
  6
KÖRPER
 62
     0
 10
69.08506231518358
 20
141.2380045266847
 30
0.0
 11
69.08506231518358
 21
174.0971670266847
 31
0.0
  0
LINE
  5
D5
  8
2D_ANSICHT_4_PLATE_DIMENSI
  6
KÖRPER
 62
     0
 10
69.08506231518358
 20
210.3780045266847
 30
0.0
 11
69.08506231518358
 21
177.5188420266847
 31
0.0
  0
SOLID
  5
D6
  8
2D_ANSICHT_4_PLATE_DIMENSI
 62
     0
 10
69.05506231518358
 20
141.2380045266847
 30
0.0
 11
69.11506231518358
 21
141.2380045266847
 31
0.0
 12
69.08506231518358
 22
141.0580045266847
 32
0.0
 13
69.08506231518358
 23
141.0580045266847
 33
0.0
  0
SOLID
  5
D7
  8
2D_ANSICHT_4_PLATE_DIMENSI
 62
     0
 10
69.11506231518358
 20
210.3780045266847
 30
0.0
 11
69.05506231518358
 21
210.3780045266847
 31
0.0
 12
69.08506231518358
 22
210.5580045266847
 32
0.0
 13
69.08506231518358
 23
210.5580045266847
 33
0.0
  0
TEXT
  5
D8
  8
2D_ANSICHT_4_PLATE_DIMENSI
 62
     0
 10
64.84643731518358
 20
174.2363795266847
 30
0.0
 40
3.175
  1
139
  0
POINT
  5
D9
  8
DEFPOINTS
 62
     0
 10
55.95197485454349
 20
141.0580045266847
 30
0.0
  0
POINT
  5
DA
  8
DEFPOINTS
 62
     0
 10
46.70197485454348
 20
210.5580045266847
 30
0.0
  0
POINT
  5
DB
  8
DEFPOINTS
 62
     0
 10
69.08506231518358
 20
210.5580045266847
 30
0.0
  0
ENDBLK
  5
DD
  8
0
  0
BLOCK
  8
0
  2
*D4
 70
     1
 10
0.0
 20
0.0
 30
0.0
  3
*D4
  1

  0
LINE
  5
E1
  8
2D_ANSICHT_4_PLATE_DIMENSI
  6
KÖRPER
 62
     0
 10
25.95197485454347
 20
145.8855700487697
 30
0.0
 11
25.95197485454347
 21
159.370280195193
 31
0.0
  0
LINE
  5
E2
  8
2D_ANSICHT_4_PLATE_DIMENSI
  6
KÖRPER
 62
     0
 10
35.95197485454347
 20
155.5205045266847
 30
0.0
 11
35.95197485454347
 21
159.370280195193
 31
0.0
  0
LINE
  5
E3
  8
2D_ANSICHT_4_PLATE_DIMENSI
  6
KÖRPER
 62
     0
 10
26.13197485454347
 20
159.190280195193
 30
0.0
 11
28.44579985454347
 21
159.190280195193
 31
0.0
  0
LINE
  5
E4
  8
2D_ANSICHT_4_PLATE_DIMENSI
  6
KÖRPER
 62
     0
 10
35.77197485454347
 20
159.190280195193
 30
0.0
 11
33.45814985454348
 21
159.190280195193
 31
0.0
  0
SOLID
  5
E5
  8
2D_ANSICHT_4_PLATE_DIMENSI
 62
     0
 10
26.13197485454347
 20
159.220280195193
 30
0.0
 11
26.13197485454347
 21
159.160280195193
 31
0.0
 12
25.95197485454347
 22
159.190280195193
 32
0.0
 13
25.95197485454347
 23
159.190280195193
 33
0.0
  0
SOLID
  5
E6
  8
2D_ANSICHT_4_PLATE_DIMENSI
 62
     0
 10
35.77197485454347
 20
159.160280195193
 30
0.0
 11
35.77197485454347
 21
159.220280195193
 31
0.0
 12
35.95197485454347
 22
159.190280195193
 32
0.0
 13
35.95197485454347
 23
159.190280195193
 33
0.0
  0
TEXT
  5
E7
  8
2D_ANSICHT_4_PLATE_DIMENSI
 62
     0
 10
28.04049985454347
 20
157.618655195193
 30
0.0
 40
3.175
  1
20
  0
POINT
  5
E8
  8
DEFPOINTS
 62
     0
 10
25.95197485454347
 20
145.8230700487697
 30
0.0
  0
POINT
  5
E9
  8
DEFPOINTS
 62
     0
 10
35.95197485454347
 20
155.4580045266847
 30
0.0
  0
POINT
  5
EA
  8
DEFPOINTS
 62
     0
 10
35.95197485454347
 20
159.190280195193
 30
0.0
  0
ENDBLK
  5
EC
  8
0
  0
BLOCK
  8
0
  2
*D5
 70
     1
 10
0.0
 20
0.0
 30
0.0
  3
*D5
  1

  0
LINE
  5
F0
  8
2D_ANSICHT_4_PLATE_DIMENSI
  6
KÖRPER
 62
     0
 10
25.95197485454348
 20
155.5205045266847
 30
0.0
 11
25.95197485454348
 21
167.0467186277528
 31
0.0
  0
LINE
  5
F1
  8
2D_ANSICHT_4_PLATE_DIMENSI
  6
KÖRPER
 62
     0
 10
45.95197485454348
 20
155.5205045266847
 30
0.0
 11
45.95197485454348
 21
167.0467186277528
 31
0.0
  0
LINE
  5
F2
  8
2D_ANSICHT_4_PLATE_DIMENSI
  6
KÖRPER
 62
     0
 10
26.13197485454348
 20
166.8667186277528
 30
0.0
 11
33.42674985454347
 21
166.8667186277528
 31
0.0
  0
LINE
  5
F3
  8
2D_ANSICHT_4_PLATE_DIMENSI
  6
KÖRPER
 62
     0
 10
45.77197485454348
 20
166.8667186277528
 30
0.0
 11
38.47719985454349
 21
166.8667186277528
 31
0.0
  0
SOLID
  5
F4
  8
2D_ANSICHT_4_PLATE_DIMENSI
 62
     0
 10
26.13197485454348
 20
166.8967186277528
 30
0.0
 11
26.13197485454348
 21
166.8367186277528
 31
0.0
 12
25.95197485454348
 22
166.8667186277528
 32
0.0
 13
25.95197485454348
 23
166.8667186277528
 33
0.0
  0
SOLID
  5
F5
  8
2D_ANSICHT_4_PLATE_DIMENSI
 62
     0
 10
45.77197485454348
 20
166.8367186277528
 30
0.0
 11
45.77197485454348
 21
166.8967186277528
 31
0.0
 12
45.95197485454348
 22
166.8667186277528
 32
0.0
 13
45.95197485454348
 23
166.8667186277528
 33
0.0
  0
TEXT
  5
F6
  8
2D_ANSICHT_4_PLATE_DIMENSI
 62
     0
 10
33.05954985454348
 20
165.2950936277528
 30
0.0
 40
3.175
  1
40
  0
POINT
  5
F7
  8
DEFPOINTS
 62
     0
 10
25.95197485454348
 20
155.4580045266847
 30
0.0
  0
POINT
  5
F8
  8
DEFPOINTS
 62
     0
 10
45.95197485454348
 20
155.4580045266847
 30
0.0
  0
POINT
  5
F9
  8
DEFPOINTS
 62
     0
 10
45.95197485454348
 20
166.8667186277528
 30
0.0
  0
ENDBLK
  5
FB
  8
0
  0
BLOCK
  8
0
  2
*D6
 70
     1
 10
0.0
 20
0.0
 30
0.0
  3
*D6
  1

  0
LINE
  5
FF
  8
2D_ANSICHT_4_PLATE_DIMENSI
  6
KÖRPER
 62
     0
 10
25.95197485454348
 20
190.9399359109124
 30
0.0
 11
25.95197485454348
 21
185.8315711041368
 31
0.0
  0
LINE
  5
100
  8
2D_ANSICHT_4_PLATE_DIMENSI
  6
KÖRPER
 62
     0
 10
38.95197485454348
 20
189.0955045266847
 30
0.0
 11
38.95197485454348
 21
185.8315711041368
 31
0.0
  0
LINE
  5
101
  8
2D_ANSICHT_4_PLATE_DIMENSI
  6
KÖRPER
 62
     0
 10
26.13197485454348
 20
186.0115711041368
 30
0.0
 11
29.68227485454348
 21
186.0115711041368
 31
0.0
  0
LINE
  5
102
  8
2D_ANSICHT_4_PLATE_DIMENSI
  6
KÖRPER
 62
     0
 10
38.77197485454348
 20
186.0115711041368
 30
0.0
 11
35.22167485454348
 21
186.0115711041368
 31
0.0
  0
SOLID
  5
103
  8
2D_ANSICHT_4_PLATE_DIMENSI
 62
     0
 10
26.13197485454348
 20
186.0415711041368
 30
0.0
 11
26.13197485454348
 21
185.9815711041368
 31
0.0
 12
25.95197485454348
 22
186.0115711041368
 32
0.0
 13
25.95197485454348
 23
186.0115711041368
 33
0.0
  0
SOLID
  5
104
  8
2D_ANSICHT_4_PLATE_DIMENSI
 62
     0
 10
38.77197485454348
 20
185.9815711041368
 30
0.0
 11
38.77197485454348
 21
186.0415711041368
 31
0.0
 12
38.95197485454348
 22
186.0115711041368
 32
0.0
 13
38.95197485454348
 23
186.0115711041368
 33
0.0
  0
TEXT
  5
105
  8
2D_ANSICHT_4_PLATE_DIMENSI
 62
     0
 10
29.27697485454348
 20
184.4399461041368
 30
0.0
 40
3.175
  1
26
  0
POINT
  5
106
  8
DEFPOINTS
 62
     0
 10
25.95197485454348
 20
191.0024359109124
 30
0.0
  0
POINT
  5
107
  8
DEFPOINTS
 62
     0
 10
38.95197485454348
 20
189.1580045266847
 30
0.0
  0
POINT
  5
108
  8
DEFPOINTS
 62
     0
 10
38.95197485454348
 20
186.0115711041368
 30
0.0
  0
ENDBLK
  5
10A
  8
0
  0
BLOCK
  8
0
  2
*D7
 70
     1
 10
0.0
 20
0.0
 30
0.0
  3
*D7
  1

  0
LINE
  5
10E
  8
2D_ANSICHT_4_PLATE_DIMENSI
  6
KÖRPER
 62
     0
 10
25.95197485454348
 20
210.1587445086435
 30
0.0
 11
25.95197485454348
 21
205.9012956808293
 31
0.0
  0
LINE
  5
10F
  8
2D_ANSICHT_4_PLATE_DIMENSI
  6
KÖRPER
 62
     0
 10
35.95197485454347
 20
211.2455045266847
 30
0.0
 11
35.95197485454347
 21
205.9012956808293
 31
0.0
  0
LINE
  5
110
  8
2D_ANSICHT_4_PLATE_DIMENSI
  6
KÖRPER
 62
     0
 10
26.13197485454348
 20
206.0812956808293
 30
0.0
 11
28.44579985454347
 21
206.0812956808293
 31
0.0
  0
LINE
  5
111
  8
2D_ANSICHT_4_PLATE_DIMENSI
  6
KÖRPER
 62
     0
 10
35.77197485454347
 20
206.0812956808293
 30
0.0
 11
33.45814985454348
 21
206.0812956808293
 31
0.0
  0
SOLID
  5
112
  8
2D_ANSICHT_4_PLATE_DIMENSI
 62
     0
 10
26.13197485454348
 20
206.1112956808293
 30
0.0
 11
26.13197485454348
 21
206.0512956808293
 31
0.0
 12
25.95197485454348
 22
206.0812956808293
 32
0.0
 13
25.95197485454348
 23
206.0812956808293
 33
0.0
  0
SOLID
  5
113
  8
2D_ANSICHT_4_PLATE_DIMENSI
 62
     0
 10
35.77197485454347
 20
206.0512956808293
 30
0.0
 11
35.77197485454347
 21
206.1112956808293
 31
0.0
 12
35.95197485454347
 22
206.0812956808293
 32
0.0
 13
35.95197485454347
 23
206.0812956808293
 33
0.0
  0
TEXT
  5
114
  8
2D_ANSICHT_4_PLATE_DIMENSI
 62
     0
 10
28.04049985454347
 20
204.5096706808293
 30
0.0
 40
3.175
  1
20
  0
POINT
  5
115
  8
DEFPOINTS
 62
     0
 10
25.95197485454348
 20
210.2212445086435
 30
0.0
  0
POINT
  5
116
  8
DEFPOINTS
 62
     0
 10
35.95197485454347
 20
211.3080045266847
 30
0.0
  0
POINT
  5
117
  8
DEFPOINTS
 62
     0
 10
35.95197485454347
 20
206.0812956808293
 30
0.0
  0
ENDBLK
  5
119
  8
0
  0
BLOCK
  8
0
  2
*D8
 70
     1
 10
0.0
 20
0.0
 30
0.0
  3
*D8
  1

  0
LINE
  5
11D
  8
2D_ANSICHT_4_PLATE_DIMENSI
  6
KÖRPER
 62
     0
 10
25.95197485454348
 20
209.3784635694329
 30
0.0
 11
25.95197485454348
 21
200.0283566898072
 31
0.0
  0
LINE
  5
11E
  8
2D_ANSICHT_4_PLATE_DIMENSI
  6
KÖRPER
 62
     0
 10
45.95197485454348
 20
211.2455045266847
 30
0.0
 11
45.95197485454348
 21
200.0283566898072
 31
0.0
  0
LINE
  5
11F
  8
2D_ANSICHT_4_PLATE_DIMENSI
  6
KÖRPER
 62
     0
 10
26.13197485454348
 20
200.2083566898072
 30
0.0
 11
33.42674985454347
 21
200.2083566898072
 31
0.0
  0
LINE
  5
120
  8
2D_ANSICHT_4_PLATE_DIMENSI
  6
KÖRPER
 62
     0
 10
45.77197485454348
 20
200.2083566898072
 30
0.0
 11
38.47719985454349
 21
200.2083566898072
 31
0.0
  0
SOLID
  5
121
  8
2D_ANSICHT_4_PLATE_DIMENSI
 62
     0
 10
26.13197485454348
 20
200.2383566898072
 30
0.0
 11
26.13197485454348
 21
200.1783566898072
 31
0.0
 12
25.95197485454348
 22
200.2083566898072
 32
0.0
 13
25.95197485454348
 23
200.2083566898072
 33
0.0
  0
SOLID
  5
122
  8
2D_ANSICHT_4_PLATE_DIMENSI
 62
     0
 10
45.77197485454348
 20
200.1783566898072
 30
0.0
 11
45.77197485454348
 21
200.2383566898072
 31
0.0
 12
45.95197485454348
 22
200.2083566898072
 32
0.0
 13
45.95197485454348
 23
200.2083566898072
 33
0.0
  0
TEXT
  5
123
  8
2D_ANSICHT_4_PLATE_DIMENSI
 62
     0
 10
33.05954985454348
 20
198.6367316898072
 30
0.0
 40
3.175
  1
40
  0
POINT
  5
124
  8
DEFPOINTS
 62
     0
 10
25.95197485454348
 20
209.4409635694329
 30
0.0
  0
POINT
  5
125
  8
DEFPOINTS
 62
     0
 10
45.95197485454348
 20
211.3080045266847
 30
0.0
  0
POINT
  5
126
  8
DEFPOINTS
 62
     0
 10
45.95197485454348
 20
200.2083566898072
 30
0.0
  0
ENDBLK
  5
128
  8
0
  0
BLOCK
  8
0
  2
*D9
 70
     1
 10
0.0
 20
0.0
 30
0.0
  3
*D9
  1

  0
LINE
  5
12C
  8
2D_ANSICHT_4_PLATE_DIMENSI
  6
KÖRPER
 62
     0
 10
25.95197485454348
 20
207.7285644595014
 30
0.0
 11
25.95197485454348
 21
219.209505085147
 31
0.0
  0
LINE
  5
12D
  8
2D_ANSICHT_4_PLATE_DIMENSI
  6
KÖRPER
 62
     0
 10
55.95197485454349
 20
207.7285644595014
 30
0.0
 11
55.95197485454349
 21
219.209505085147
 31
0.0
  0
LINE
  5
12E
  8
2D_ANSICHT_4_PLATE_DIMENSI
  6
KÖRPER
 62
     0
 10
26.13197485454348
 20
219.029505085147
 30
0.0
 11
38.44579985454347
 21
219.029505085147
 31
0.0
  0
LINE
  5
12F
  8
2D_ANSICHT_4_PLATE_DIMENSI
  6
KÖRPER
 62
     0
 10
55.77197485454349
 20
219.029505085147
 30
0.0
 11
43.45814985454349
 21
219.029505085147
 31
0.0
  0
SOLID
  5
130
  8
2D_ANSICHT_4_PLATE_DIMENSI
 62
     0
 10
26.13197485454348
 20
219.059505085147
 30
0.0
 11
26.13197485454348
 21
218.999505085147
 31
0.0
 12
25.95197485454348
 22
219.029505085147
 32
0.0
 13
25.95197485454348
 23
219.029505085147
 33
0.0
  0
SOLID
  5
131
  8
2D_ANSICHT_4_PLATE_DIMENSI
 62
     0
 10
55.77197485454349
 20
218.999505085147
 30
0.0
 11
55.77197485454349
 21
219.059505085147
 31
0.0
 12
55.95197485454349
 22
219.029505085147
 32
0.0
 13
55.95197485454349
 23
219.029505085147
 33
0.0
  0
TEXT
  5
132
  8
2D_ANSICHT_4_PLATE_DIMENSI
 62
     0
 10
38.04049985454348
 20
217.457880085147
 30
0.0
 40
3.175
  1
60
  0
POINT
  5
133
  8
DEFPOINTS
 62
     0
 10
25.95197485454348
 20
207.6660644595014
 30
0.0
  0
POINT
  5
134
  8
DEFPOINTS
 62
     0
 10
55.95197485454349
 20
207.6660644595014
 30
0.0
  0
POINT
  5
135
  8
DEFPOINTS
 62
     0
 10
55.95197485454349
 20
219.029505085147
 30
0.0
  0
ENDBLK
  5
137
  8
0
  0
BLOCK
  8
0
  2
*D10
 70
     1
 10
0.0
 20
0.0
 30
0.0
  3
*D10
  1

  0
LINE
  5
13B
  8
2D_ANSICHT_4_PLATE_DIMENSI
  6
KÖRPER
 62
     0
 10
33.02837070753817
 20
216.0580045266847
 30
0.0
 11
74.69077140121864
 21
216.0580045266847
 31
0.0
  0
LINE
  5
13C
  8
2D_ANSICHT_4_PLATE_DIMENSI
  6
KÖRPER
 62
     0
 10
42.28113255468303
 20
141.0580045266847
 30
0.0
 11
74.69077140121864
 21
141.0580045266847
 31
0.0
  0
LINE
  5
13D
  8
2D_ANSICHT_4_PLATE_DIMENSI
  6
KÖRPER
 62
     0
 10
74.51077140121863
 20
215.8780045266847
 30
0.0
 11
74.51077140121863
 21
180.2688420266847
 31
0.0
  0
LINE
  5
13E
  8
2D_ANSICHT_4_PLATE_DIMENSI
  6
KÖRPER
 62
     0
 10
74.51077140121863
 20
141.2380045266847
 30
0.0
 11
74.51077140121863
 21
176.8471670266847
 31
0.0
  0
SOLID
  5
13F
  8
2D_ANSICHT_4_PLATE_DIMENSI
 62
     0
 10
74.54077140121863
 20
215.8780045266847
 30
0.0
 11
74.48077140121863
 21
215.8780045266847
 31
0.0
 12
74.51077140121863
 22
216.0580045266847
 32
0.0
 13
74.51077140121863
 23
216.0580045266847
 33
0.0
  0
SOLID
  5
140
  8
2D_ANSICHT_4_PLATE_DIMENSI
 62
     0
 10
74.48077140121863
 20
141.2380045266847
 30
0.0
 11
74.54077140121863
 21
141.2380045266847
 31
0.0
 12
74.51077140121863
 22
141.0580045266847
 32
0.0
 13
74.51077140121863
 23
141.0580045266847
 33
0.0
  0
TEXT
  5
141
  8
2D_ANSICHT_4_PLATE_DIMENSI
 62
     0
 10
70.53567140121864
 20
176.9863795266847
 30
0.0
 40
3.175
  1
150
  0
POINT
  5
142
  8
DEFPOINTS
 62
     0
 10
32.96587070753817
 20
216.0580045266847
 30
0.0
  0
POINT
  5
143
  8
DEFPOINTS
 62
     0
 10
42.21863255468303
 20
141.0580045266847
 30
0.0
  0
POINT
  5
144
  8
DEFPOINTS
 62
     0
 10
74.51077140121863
 20
141.0580045266847
 30
0.0
  0
ENDBLK
  5
146
  8
0
  0
BLOCK
  8
0
  2
*D11
 70
     1
 10
0.0
 20
0.0
 30
0.0
  3
*D11
  1

  0
LINE
  5
15C
  8
2D_ANSICHT_4_PLATE_DIMENSI
  6
KÖRPER
 62
     0
 10
30.06250000000001
 20
0.5499999999999088
 30
0.0
 11
39.24374779303257
 21
0.5499999999999083
 31
0.0
  0
LINE
  5
15D
  8
2D_ANSICHT_4_PLATE_DIMENSI
  6
KÖRPER
 62
     0
 10
11.26250000000001
 20
30.54999999999992
 30
0.0
 11
39.24374779303257
 21
30.54999999999992
 31
0.0
  0
LINE
  5
15E
  8
2D_ANSICHT_4_PLATE_DIMENSI
  6
KÖRPER
 62
     0
 10
39.06374779303257
 20
0.7299999999999083
 30
0.0
 11
39.06374779303257
 21
12.21832499999991
 31
0.0
  0
LINE
  5
15F
  8
2D_ANSICHT_4_PLATE_DIMENSI
  6
KÖRPER
 62
     0
 10
39.06374779303257
 20
30.36999999999992
 30
0.0
 11
39.06374779303257
 21
18.88167499999991
 31
0.0
  0
SOLID
  5
160
  8
2D_ANSICHT_4_PLATE_DIMENSI
 62
     0
 10
39.03374779303257
 20
0.7299999999999083
 30
0.0
 11
39.09374779303257
 21
0.7299999999999083
 31
0.0
 12
39.06374779303257
 22
0.5499999999999083
 32
0.0
 13
39.06374779303257
 23
0.5499999999999083
 33
0.0
  0
SOLID
  5
161
  8
2D_ANSICHT_4_PLATE_DIMENSI
 62
     0
 10
39.09374779303257
 20
30.36999999999992
 30
0.0
 11
39.03374779303257
 21
30.36999999999992
 31
0.0
 12
39.06374779303257
 22
30.54999999999992
 32
0.0
 13
39.06374779303257
 23
30.54999999999992
 33
0.0
  0
TEXT
  5
162
  8
2D_ANSICHT_4_PLATE_DIMENSI
 62
     0
 10
21.58219779303257
 20
12.40674999999991
 30
0.0
 40
6.35
  1
30.0000
  0
POINT
  5
163
  8
DEFPOINTS
 62
     0
 10
30.00000000000001
 20
0.5499999999999088
 30
0.0
  0
POINT
  5
164
  8
DEFPOINTS
 62
     0
 10
11.20000000000001
 20
30.54999999999992
 30
0.0
  0
POINT
  5
165
  8
DEFPOINTS
 62
     0
 10
39.06374779303257
 20
30.54999999999992
 30
0.0
  0
ENDBLK
  5
167
  8
0
  0
BLOCK
  8
0
  2
*D12
 70
     1
 10
0.0
 20
0.0
 30
0.0
  3
*D12
  1

  0
LINE
  5
16B
  8
2D_ANSICHT_4_PLATE_DIMENSI
  6
KÖRPER
 62
     0
 10
30.06250000000001
 20
0.5499999999999088
 30
0.0
 11
48.30749437605495
 21
0.5499999999999119
 31
0.0
  0
LINE
  5
16C
  8
2D_ANSICHT_4_PLATE_DIMENSI
  6
KÖRPER
 62
     0
 10
-2.737499999999989
 20
95.54999999999991
 30
0.0
 11
48.30749437605496
 21
95.54999999999991
 31
0.0
  0
LINE
  5
16D
  8
2D_ANSICHT_4_PLATE_DIMENSI
  6
KÖRPER
 62
     0
 10
48.12749437605495
 20
0.7299999999999118
 30
0.0
 11
48.12749437605495
 21
44.71832499999991
 31
0.0
  0
LINE
  5
16E
  8
2D_ANSICHT_4_PLATE_DIMENSI
  6
KÖRPER
 62
     0
 10
48.12749437605496
 20
95.3699999999999
 30
0.0
 11
48.12749437605496
 21
51.38167499999992
 31
0.0
  0
SOLID
  5
16F
  8
2D_ANSICHT_4_PLATE_DIMENSI
 62
     0
 10
48.09749437605495
 20
0.7299999999999118
 30
0.0
 11
48.15749437605496
 21
0.7299999999999118
 31
0.0
 12
48.12749437605495
 22
0.5499999999999119
 32
0.0
 13
48.12749437605495
 23
0.5499999999999119
 33
0.0
  0
SOLID
  5
170
  8
2D_ANSICHT_4_PLATE_DIMENSI
 62
     0
 10
48.15749437605496
 20
95.3699999999999
 30
0.0
 11
48.09749437605496
 21
95.3699999999999
 31
0.0
 12
48.12749437605496
 22
95.54999999999991
 32
0.0
 13
48.12749437605496
 23
95.54999999999991
 33
0.0
  0
TEXT
  5
171
  8
2D_ANSICHT_4_PLATE_DIMENSI
 62
     0
 10
30.12841937605495
 20
44.90674999999992
 30
0.0
 40
6.35
  1
95.0000
  0
POINT
  5
172
  8
DEFPOINTS
 62
     0
 10
30.00000000000001
 20
0.5499999999999088
 30
0.0
  0
POINT
  5
173
  8
DEFPOINTS
 62
     0
 10
-2.799999999999989
 20
95.54999999999991
 30
0.0
  0
POINT
  5
174
  8
DEFPOINTS
 62
     0
 10
48.12749437605496
 20
95.54999999999991
 30
0.0
  0
ENDBLK
  5
176
  8
0
  0
BLOCK
  8
0
  2
*D13
 70
     1
 10
0.0
 20
0.0
 30
0.0
  3
*D13
  1

  0
LINE
  5
17A
  8
2D_ANSICHT_4_PLATE_DIMENSI
  6
KÖRPER
 62
     0
 10
30.06250000000001
 20
0.5499999999999088
 30
0.0
 11
56.44617492128018
 21
0.5499999999998976
 31
0.0
  0
LINE
  5
17B
  8
2D_ANSICHT_4_PLATE_DIMENSI
  6
KÖRPER
 62
     0
 10
11.56250000000001
 20
139.5499999999999
 30
0.0
 11
56.44617492128019
 21
139.5499999999999
 31
0.0
  0
LINE
  5
17C
  8
2D_ANSICHT_4_PLATE_DIMENSI
  6
KÖRPER
 62
     0
 10
56.26617492128018
 20
0.7299999999998976
 30
0.0
 11
56.26617492128018
 21
66.71832499999988
 31
0.0
  0
LINE
  5
17D
  8
2D_ANSICHT_4_PLATE_DIMENSI
  6
KÖRPER
 62
     0
 10
56.26617492128019
 20
139.3699999999999
 30
0.0
 11
56.26617492128019
 21
73.38167499999989
 31
0.0
  0
SOLID
  5
17E
  8
2D_ANSICHT_4_PLATE_DIMENSI
 62
     0
 10
56.23617492128018
 20
0.7299999999998976
 30
0.0
 11
56.29617492128018
 21
0.7299999999998976
 31
0.0
 12
56.26617492128018
 22
0.5499999999998977
 32
0.0
 13
56.26617492128018
 23
0.5499999999998977
 33
0.0
  0
SOLID
  5
17F
  8
2D_ANSICHT_4_PLATE_DIMENSI
 62
     0
 10
56.29617492128019
 20
139.3699999999999
 30
0.0
 11
56.23617492128019
 21
139.3699999999999
 31
0.0
 12
56.26617492128019
 22
139.5499999999999
 32
0.0
 13
56.26617492128019
 23
139.5499999999999
 33
0.0
  0
TEXT
  5
180
  8
2D_ANSICHT_4_PLATE_DIMENSI
 62
     0
 10
36.13984992128018
 20
66.90674999999989
 30
0.0
 40
6.35
  1
139.0000
  0
POINT
  5
181
  8
DEFPOINTS
 62
     0
 10
30.00000000000001
 20
0.5499999999999088
 30
0.0
  0
POINT
  5
182
  8
DEFPOINTS
 62
     0
 10
11.50000000000001
 20
139.5499999999999
 30
0.0
  0
POINT
  5
183
  8
DEFPOINTS
 62
     0
 10
56.26617492128019
 20
139.5499999999999
 30
0.0
  0
ENDBLK
  5
185
  8
0
  0
BLOCK
  8
0
  2
*D14
 70
     1
 10
0.0
 20
0.0
 30
0.0
  3
*D14
  1

  0
LINE
  5
189
  8
2D_ANSICHT_4_PLATE_DIMENSI
  6
KÖRPER
 62
     0
 10
-30.0
 20
10.14263104416992
 30
0.0
 11
-30.0
 21
36.99455133701649
 31
0.0
  0
LINE
  5
18A
  8
2D_ANSICHT_4_PLATE_DIMENSI
  6
KÖRPER
 62
     0
 10
-9.999999999999988
 20
29.41249999999992
 30
0.0
 11
-9.999999999999988
 21
36.99455133701649
 31
0.0
  0
LINE
  5
18B
  8
2D_ANSICHT_4_PLATE_DIMENSI
  6
KÖRPER
 62
     0
 10
-9.999999999999988
 20
36.81455133701649
 30
0.0
 11
-9.819999999999988
 21
36.81455133701649
 31
0.0
  0
LINE
  5
18C
  8
2D_ANSICHT_4_PLATE_DIMENSI
  6
KÖRPER
 62
     0
 10
-29.82
 20
36.81455133701649
 30
0.0
 11
-10.17999999999999
 21
36.81455133701649
 31
0.0
  0
SOLID
  5
18D
  8
2D_ANSICHT_4_PLATE_DIMENSI
 62
     0
 10
-29.82
 20
36.84455133701649
 30
0.0
 11
-29.82
 21
36.78455133701649
 31
0.0
 12
-30.0
 22
36.81455133701649
 32
0.0
 13
-30.0
 23
36.81455133701649
 33
0.0
  0
SOLID
  5
18E
  8
2D_ANSICHT_4_PLATE_DIMENSI
 62
     0
 10
-10.17999999999999
 20
36.78455133701649
 30
0.0
 11
-10.17999999999999
 21
36.84455133701649
 31
0.0
 12
-9.999999999999988
 22
36.81455133701649
 32
0.0
 13
-9.999999999999988
 23
36.81455133701649
 33
0.0
  0
TEXT
  5
18F
  8
2D_ANSICHT_4_PLATE_DIMENSI
 62
     0
 10
-10.72059999999999
 20
33.67130133701649
 30
0.0
 40
6.35
  1
20.0000
  0
POINT
  5
190
  8
DEFPOINTS
 62
     0
 10
-30.0
 20
10.08013104416992
 30
0.0
  0
POINT
  5
191
  8
DEFPOINTS
 62
     0
 10
-9.999999999999988
 20
29.34999999999992
 30
0.0
  0
POINT
  5
192
  8
DEFPOINTS
 62
     0
 10
-9.999999999999988
 20
36.81455133701649
 30
0.0
  0
ENDBLK
  5
194
  8
0
  0
BLOCK
  8
0
  2
*D15
 70
     1
 10
0.0
 20
0.0
 30
0.0
  3
*D15
  1

  0
LINE
  5
198
  8
2D_ANSICHT_4_PLATE_DIMENSI
  6
KÖRPER
 62
     0
 10
-29.99999999999999
 20
29.41249999999992
 30
0.0
 11
-29.99999999999999
 21
52.34742820213607
 31
0.0
  0
LINE
  5
199
  8
2D_ANSICHT_4_PLATE_DIMENSI
  6
KÖRPER
 62
     0
 10
10.00000000000001
 20
29.41249999999992
 30
0.0
 11
10.00000000000001
 21
52.34742820213607
 31
0.0
  0
LINE
  5
19A
  8
2D_ANSICHT_4_PLATE_DIMENSI
  6
KÖRPER
 62
     0
 10
-29.81999999999999
 20
52.16742820213607
 30
0.0
 11
-26.60952499999998
 21
52.16742820213607
 31
0.0
  0
LINE
  5
19B
  8
2D_ANSICHT_4_PLATE_DIMENSI
  6
KÖRPER
 62
     0
 10
9.820000000000013
 20
52.16742820213607
 30
0.0
 11
6.609525000000012
 21
52.16742820213607
 31
0.0
  0
SOLID
  5
19C
  8
2D_ANSICHT_4_PLATE_DIMENSI
 62
     0
 10
-29.81999999999999
 20
52.19742820213607
 30
0.0
 11
-29.81999999999999
 21
52.13742820213606
 31
0.0
 12
-29.99999999999999
 22
52.16742820213607
 32
0.0
 13
-29.99999999999999
 23
52.16742820213607
 33
0.0
  0
SOLID
  5
19D
  8
2D_ANSICHT_4_PLATE_DIMENSI
 62
     0
 10
9.820000000000013
 20
52.13742820213606
 30
0.0
 11
9.820000000000013
 21
52.19742820213607
 31
0.0
 12
10.00000000000001
 22
52.16742820213607
 32
0.0
 13
10.00000000000001
 23
52.16742820213607
 33
0.0
  0
TEXT
  5
19E
  8
2D_ANSICHT_4_PLATE_DIMENSI
 62
     0
 10
-27.43392499999998
 20
49.02417820213607
 30
0.0
 40
6.35
  1
40.0000
  0
POINT
  5
19F
  8
DEFPOINTS
 62
     0
 10
-29.99999999999999
 20
29.34999999999992
 30
0.0
  0
POINT
  5
1A0
  8
DEFPOINTS
 62
     0
 10
10.00000000000001
 20
29.34999999999992
 30
0.0
  0
POINT
  5
1A1
  8
DEFPOINTS
 62
     0
 10
10.00000000000001
 20
52.16742820213607
 30
0.0
  0
ENDBLK
  5
1A3
  8
0
  0
BLOCK
  8
0
  2
*D16
 70
     1
 10
0.0
 20
0.0
 30
0.0
  3
*D16
  1

  0
LINE
  5
1A7
  8
2D_ANSICHT_4_PLATE_DIMENSI
  6
KÖRPER
 62
     0
 10
-29.99999999999999
 20
100.3763627684552
 30
0.0
 11
-29.99999999999999
 21
90.27713315490415
 31
0.0
  0
LINE
  5
1A8
  8
2D_ANSICHT_4_PLATE_DIMENSI
  6
KÖRPER
 62
     0
 10
-3.999999999999987
 20
96.68749999999991
 30
0.0
 11
-3.999999999999987
 21
90.27713315490415
 31
0.0
  0
LINE
  5
1A9
  8
2D_ANSICHT_4_PLATE_DIMENSI
  6
KÖRPER
 62
     0
 10
-3.999999999999987
 20
90.45713315490416
 30
0.0
 11
-3.819999999999987
 21
90.45713315490416
 31
0.0
  0
LINE
  5
1AA
  8
2D_ANSICHT_4_PLATE_DIMENSI
  6
KÖRPER
 62
     0
 10
-29.81999999999999
 20
90.45713315490416
 30
0.0
 11
-4.179999999999987
 21
90.45713315490416
 31
0.0
  0
SOLID
  5
1AB
  8
2D_ANSICHT_4_PLATE_DIMENSI
 62
     0
 10
-29.81999999999999
 20
90.48713315490416
 30
0.0
 11
-29.81999999999999
 21
90.42713315490415
 31
0.0
 12
-29.99999999999999
 22
90.45713315490416
 32
0.0
 13
-29.99999999999999
 23
90.45713315490416
 33
0.0
  0
SOLID
  5
1AC
  8
2D_ANSICHT_4_PLATE_DIMENSI
 62
     0
 10
-4.179999999999987
 20
90.42713315490415
 30
0.0
 11
-4.179999999999987
 21
90.48713315490416
 31
0.0
 12
-3.999999999999987
 22
90.45713315490416
 32
0.0
 13
-3.999999999999987
 23
90.45713315490416
 33
0.0
  0
TEXT
  5
1AD
  8
2D_ANSICHT_4_PLATE_DIMENSI
 62
     0
 10
-4.720599999999984
 20
87.31388315490416
 30
0.0
 40
6.35
  1
26.0000
  0
POINT
  5
1AE
  8
DEFPOINTS
 62
     0
 10
-29.99999999999999
 20
100.4388627684552
 30
0.0
  0
POINT
  5
1AF
  8
DEFPOINTS
 62
     0
 10
-3.999999999999987
 20
96.74999999999991
 30
0.0
  0
POINT
  5
1B0
  8
DEFPOINTS
 62
     0
 10
-3.999999999999987
 20
90.45713315490416
 30
0.0
  0
ENDBLK
  5
1B2
  8
0
  0
BLOCK
  8
0
  2
*D17
 70
     1
 10
0.0
 20
0.0
 30
0.0
  3
*D17
  1

  0
LINE
  5
1B6
  8
2D_ANSICHT_4_PLATE_DIMENSI
  6
KÖRPER
 62
     0
 10
-29.99999999999999
 20
138.8139799639174
 30
0.0
 11
-29.99999999999999
 21
130.416582308289
 31
0.0
  0
LINE
  5
1B7
  8
2D_ANSICHT_4_PLATE_DIMENSI
  6
KÖRPER
 62
     0
 10
-9.999999999999988
 20
140.9874999999999
 30
0.0
 11
-9.999999999999988
 21
130.416582308289
 31
0.0
  0
LINE
  5
1B8
  8
2D_ANSICHT_4_PLATE_DIMENSI
  6
KÖRPER
 62
     0
 10
-9.999999999999988
 20
130.596582308289
 30
0.0
 11
-9.819999999999988
 21
130.596582308289
 31
0.0
  0
LINE
  5
1B9
  8
2D_ANSICHT_4_PLATE_DIMENSI
  6
KÖRPER
 62
     0
 10
-29.81999999999999
 20
130.596582308289
 30
0.0
 11
-10.17999999999999
 21
130.596582308289
 31
0.0
  0
SOLID
  5
1BA
  8
2D_ANSICHT_4_PLATE_DIMENSI
 62
     0
 10
-29.81999999999999
 20
130.626582308289
 30
0.0
 11
-29.81999999999999
 21
130.566582308289
 31
0.0
 12
-29.99999999999999
 22
130.596582308289
 32
0.0
 13
-29.99999999999999
 23
130.596582308289
 33
0.0
  0
SOLID
  5
1BB
  8
2D_ANSICHT_4_PLATE_DIMENSI
 62
     0
 10
-10.17999999999999
 20
130.566582308289
 30
0.0
 11
-10.17999999999999
 21
130.626582308289
 31
0.0
 12
-9.999999999999988
 22
130.596582308289
 32
0.0
 13
-9.999999999999988
 23
130.596582308289
 33
0.0
  0
TEXT
  5
1BC
  8
2D_ANSICHT_4_PLATE_DIMENSI
 62
     0
 10
-10.72059999999999
 20
127.453332308289
 30
0.0
 40
6.35
  1
20.0000
  0
POINT
  5
1BD
  8
DEFPOINTS
 62
     0
 10
-29.99999999999999
 20
138.8764799639174
 30
0.0
  0
POINT
  5
1BE
  8
DEFPOINTS
 62
     0
 10
-9.999999999999988
 20
141.0499999999999
 30
0.0
  0
POINT
  5
1BF
  8
DEFPOINTS
 62
     0
 10
-9.999999999999988
 20
130.596582308289
 30
0.0
  0
ENDBLK
  5
1C1
  8
0
  0
BLOCK
  8
0
  2
*D18
 70
     1
 10
0.0
 20
0.0
 30
0.0
  3
*D18
  1

  0
LINE
  5
1C5
  8
2D_ANSICHT_4_PLATE_DIMENSI
  6
KÖRPER
 62
     0
 10
-29.99999999999999
 20
137.2534180854963
 30
0.0
 11
-29.99999999999999
 21
118.6707043262448
 31
0.0
  0
LINE
  5
1C6
  8
2D_ANSICHT_4_PLATE_DIMENSI
  6
KÖRPER
 62
     0
 10
10.00000000000001
 20
140.9874999999999
 30
0.0
 11
10.00000000000001
 21
118.6707043262448
 31
0.0
  0
LINE
  5
1C7
  8
2D_ANSICHT_4_PLATE_DIMENSI
  6
KÖRPER
 62
     0
 10
-29.81999999999999
 20
118.8507043262449
 30
0.0
 11
-26.60952499999998
 21
118.8507043262449
 31
0.0
  0
LINE
  5
1C8
  8
2D_ANSICHT_4_PLATE_DIMENSI
  6
KÖRPER
 62
     0
 10
9.820000000000013
 20
118.8507043262449
 30
0.0
 11
6.609525000000012
 21
118.8507043262449
 31
0.0
  0
SOLID
  5
1C9
  8
2D_ANSICHT_4_PLATE_DIMENSI
 62
     0
 10
-29.81999999999999
 20
118.8807043262449
 30
0.0
 11
-29.81999999999999
 21
118.8207043262449
 31
0.0
 12
-29.99999999999999
 22
118.8507043262449
 32
0.0
 13
-29.99999999999999
 23
118.8507043262449
 33
0.0
  0
SOLID
  5
1CA
  8
2D_ANSICHT_4_PLATE_DIMENSI
 62
     0
 10
9.820000000000013
 20
118.8207043262449
 30
0.0
 11
9.820000000000013
 21
118.8807043262449
 31
0.0
 12
10.00000000000001
 22
118.8507043262449
 32
0.0
 13
10.00000000000001
 23
118.8507043262449
 33
0.0
  0
TEXT
  5
1CB
  8
2D_ANSICHT_4_PLATE_DIMENSI
 62
     0
 10
-27.43392499999998
 20
115.7074543262449
 30
0.0
 40
6.35
  1
40.0000
  0
POINT
  5
1CC
  8
DEFPOINTS
 62
     0
 10
-29.99999999999999
 20
137.3159180854963
 30
0.0
  0
POINT
  5
1CD
  8
DEFPOINTS
 62
     0
 10
10.00000000000001
 20
141.0499999999999
 30
0.0
  0
POINT
  5
1CE
  8
DEFPOINTS
 62
     0
 10
10.00000000000001
 20
118.8507043262449
 30
0.0
  0
ENDBLK
  5
1D0
  8
0
  0
BLOCK
  8
0
  2
*D19
 70
     1
 10
0.0
 20
0.0
 30
0.0
  3
*D19
  1

  0
LINE
  5
1D4
  8
2D_ANSICHT_4_PLATE_DIMENSI
  6
KÖRPER
 62
     0
 10
-29.99999999999999
 20
133.8286198656333
 30
0.0
 11
-29.99999999999999
 21
156.6730011169245
 31
0.0
  0
LINE
  5
1D5
  8
2D_ANSICHT_4_PLATE_DIMENSI
  6
KÖRPER
 62
     0
 10
30.00000000000001
 20
133.8286198656333
 30
0.0
 11
30.00000000000001
 21
156.6730011169245
 31
0.0
  0
LINE
  5
1D6
  8
2D_ANSICHT_4_PLATE_DIMENSI
  6
KÖRPER
 62
     0
 10
-29.81999999999999
 20
156.4930011169245
 30
0.0
 11
-16.57142499999998
 21
156.4930011169245
 31
0.0
  0
LINE
  5
1D7
  8
2D_ANSICHT_4_PLATE_DIMENSI
  6
KÖRPER
 62
     0
 10
29.82000000000001
 20
156.4930011169245
 30
0.0
 11
16.57142500000001
 21
156.4930011169245
 31
0.0
  0
SOLID
  5
1D8
  8
2D_ANSICHT_4_PLATE_DIMENSI
 62
     0
 10
-29.81999999999999
 20
156.5230011169245
 30
0.0
 11
-29.81999999999999
 21
156.4630011169245
 31
0.0
 12
-29.99999999999999
 22
156.4930011169245
 32
0.0
 13
-29.99999999999999
 23
156.4930011169245
 33
0.0
  0
SOLID
  5
1D9
  8
2D_ANSICHT_4_PLATE_DIMENSI
 62
     0
 10
29.82000000000001
 20
156.4630011169245
 30
0.0
 11
29.82000000000001
 21
156.5230011169245
 31
0.0
 12
30.00000000000001
 22
156.4930011169245
 32
0.0
 13
30.00000000000001
 23
156.4930011169245
 33
0.0
  0
TEXT
  5
1DA
  8
2D_ANSICHT_4_PLATE_DIMENSI
 62
     0
 10
-17.47202499999998
 20
153.3497511169245
 30
0.0
 40
6.35
  1
60.0000
  0
POINT
  5
1DB
  8
DEFPOINTS
 62
     0
 10
-29.99999999999999
 20
133.7661198656333
 30
0.0
  0
POINT
  5
1DC
  8
DEFPOINTS
 62
     0
 10
30.00000000000001
 20
133.7661198656333
 30
0.0
  0
POINT
  5
1DD
  8
DEFPOINTS
 62
     0
 10
30.00000000000001
 20
156.4930011169245
 30
0.0
  0
ENDBLK
  5
1DF
  8
0
  0
BLOCK
  8
0
  2
*D20
 70
     1
 10
0.0
 20
0.0
 30
0.0
  3
*D20
  1

  0
LINE
  5
1E3
  8
2D_ANSICHT_4_PLATE_DIMENSI
  6
KÖRPER
 62
     0
 10
-15.9097082940106
 20
150.5499999999999
 30
0.0
 11
67.29759309335033
 21
150.5499999999998
 31
0.0
  0
LINE
  5
1E4
  8
2D_ANSICHT_4_PLATE_DIMENSI
  6
KÖRPER
 62
     0
 10
2.595815400279128
 20
0.5499999999999088
 30
0.0
 11
67.29759309335032
 21
0.5499999999999048
 31
0.0
  0
LINE
  5
1E5
  8
2D_ANSICHT_4_PLATE_DIMENSI
  6
KÖRPER
 62
     0
 10
67.11759309335032
 20
150.3699999999998
 30
0.0
 11
67.11759309335032
 21
78.88167499999987
 31
0.0
  0
LINE
  5
1E6
  8
2D_ANSICHT_4_PLATE_DIMENSI
  6
KÖRPER
 62
     0
 10
67.11759309335031
 20
0.7299999999999047
 30
0.0
 11
67.11759309335031
 21
72.21832499999985
 31
0.0
  0
SOLID
  5
1E7
  8
2D_ANSICHT_4_PLATE_DIMENSI
 62
     0
 10
67.14759309335032
 20
150.3699999999998
 30
0.0
 11
67.08759309335032
 21
150.3699999999998
 31
0.0
 12
67.11759309335032
 22
150.5499999999998
 32
0.0
 13
67.11759309335032
 23
150.5499999999998
 33
0.0
  0
SOLID
  5
1E8
  8
2D_ANSICHT_4_PLATE_DIMENSI
 62
     0
 10
67.0875930933503
 20
0.7299999999999047
 30
0.0
 11
67.14759309335031
 21
0.7299999999999047
 31
0.0
 12
67.11759309335031
 22
0.5499999999999048
 32
0.0
 13
67.11759309335031
 23
0.5499999999999048
 33
0.0
  0
TEXT
  5
1E9
  8
2D_ANSICHT_4_PLATE_DIMENSI
 62
     0
 10
47.51831809335031
 20
72.40674999999987
 30
0.0
 40
6.35
  1
150.0000
  0
POINT
  5
1EA
  8
DEFPOINTS
 62
     0
 10
-15.9722082940106
 20
150.5499999999999
 30
0.0
  0
POINT
  5
1EB
  8
DEFPOINTS
 62
     0
 10
2.533315400279128
 20
0.5499999999999088
 30
0.0
  0
POINT
  5
1EC
  8
DEFPOINTS
 62
     0
 10
67.11759309335031
 20
0.5499999999999048
 30
0.0
  0
ENDBLK
  5
1EE
  8
0
  0
ENDSEC
  0
SECTION
  2
ENTITIES
  0
LINE
  5
7D
  8
2D_ANSICHT_4_PLATE_DRAWING
  6
KÖRPER
 62
     5
 10
55.45197485454349
 20
141.5580045266847
 30
0.0
 11
26.45197485454348
 21
141.5580045266847
 31
0.0
  0
LINE
  5
7E
  8
2D_ANSICHT_4_PLATE_DRAWING
  6
KÖRPER
 62
     5
 10
26.45197485454348
 20
141.5580045266847
 30
0.0
 11
26.45197485454348
 21
215.5580045266847
 31
0.0
  0
LINE
  5
7F
  8
2D_ANSICHT_4_PLATE_DRAWING
  6
KÖRPER
 62
     5
 10
26.45197485454347
 20
141.5580045266847
 30
0.0
 11
25.95197485454347
 21
141.0580045266847
 31
0.0
  0
LINE
  5
80
  8
2D_ANSICHT_4_PLATE_DRAWING
  6
KÖRPER
 62
     5
 10
25.95197485454348
 20
216.0580045266847
 30
0.0
 11
25.95197485454348
 21
141.0580045266847
 31
0.0
  0
LINE
  5
81
  8
2D_ANSICHT_4_PLATE_DRAWING
  6
KÖRPER
 62
     5
 10
26.45197485454348
 20
215.5580045266847
 30
0.0
 11
55.45197485454349
 21
215.5580045266847
 31
0.0
  0
LINE
  5
82
  8
2D_ANSICHT_4_PLATE_DRAWING
  6
KÖRPER
 62
     5
 10
55.45197485454349
 20
215.5580045266847
 30
0.0
 11
55.45197485454349
 21
141.5580045266847
 31
0.0
  0
LINE
  5
83
  8
2D_ANSICHT_4_PLATE_DRAWING
  6
KÖRPER
 62
     5
 10
25.95197485454348
 20
141.0580045266847
 30
0.0
 11
55.95197485454349
 21
141.0580045266847
 31
0.0
  0
LINE
  5
84
  8
2D_ANSICHT_4_PLATE_DRAWING
  6
KÖRPER
 62
     5
 10
55.95197485454349
 20
141.0580045266847
 30
0.0
 11
55.45197485454349
 21
141.5580045266847
 31
0.0
  0
LINE
  5
85
  8
2D_ANSICHT_4_PLATE_DRAWING
  6
KÖRPER
 62
     5
 10
25.95197485454348
 20
216.0580045266847
 30
0.0
 11
26.45197485454348
 21
215.5580045266847
 31
0.0
  0
LINE
  5
86
  8
2D_ANSICHT_4_PLATE_DRAWING
  6
KÖRPER
 62
     5
 10
55.95197485454349
 20
216.0580045266847
 30
0.0
 11
25.95197485454348
 21
216.0580045266847
 31
0.0
  0
LINE
  5
87
  8
2D_ANSICHT_4_PLATE_DRAWING
  6
KÖRPER
 62
     5
 10
55.45197485454349
 20
215.5580045266847
 30
0.0
 11
55.95197485454349
 21
216.0580045266847
 31
0.0
  0
LINE
  5
88
  8
2D_ANSICHT_4_PLATE_DRAWING
  6
KÖRPER
 62
     5
 10
55.95197485454349
 20
141.0580045266847
 30
0.0
 11
55.95197485454349
 21
216.0580045266847
 31
0.0
  0
CIRCLE
  5
89
  8
2D_ANSICHT_4_PLATE_DRAWING
  6
KÖRPER
 62
     5
 10
-45.95197485454348
 20
210.5580045266847
 30
0.0
 40
0.7500000000000284
210
0.0
220
0.0
230
-1.0
  0
CIRCLE
  5
8A
  8
2D_ANSICHT_4_PLATE_DRAWING
  6
KÖRPER
 62
     5
 10
-45.95197485454348
 20
156.0580045266847
 30
0.0
 40
0.5999999999999943
210
0.0
220
0.0
230
-1.0
  0
CIRCLE
  5
8B
  8
2D_ANSICHT_4_PLATE_DRAWING
  6
KÖRPER
 62
     5
 10
-38.95197485454348
 20
188.5580045266847
 30
0.0
 40
0.5999999999999943
210
0.0
220
0.0
230
-1.0
  0
CIRCLE
  5
8C
  8
2D_ANSICHT_4_PLATE_DRAWING
  6
KÖRPER
 62
     5
 10
-35.95197485454347
 20
156.0580045266847
 30
0.0
 40
0.5999999999999943
210
0.0
220
0.0
230
-1.0
  0
CIRCLE
  5
8D
  8
2D_ANSICHT_4_PLATE_DRAWING
  6
KÖRPER
 62
     5
 10
-35.95197485454347
 20
210.5580045266847
 30
0.0
 40
0.75
210
0.0
220
0.0
230
-1.0
  0
DIMENSION
  5
8E
  8
2D_ANSICHT_4_PLATE_DIMENSI
  6
KÖRPER
 62
    18
  2
*D1
 10
60.48384875105976
 20
156.0580045266847
 30
0.0
 11
60.48384875105976
 21
148.5580045266847
 31
0.0
 70
    32
  1
30
  3
STANDARD
 13
55.95197485454349
 23
141.0580045266847
 33
0.0
 14
46.55197485454348
 24
156.0580045266847
 34
0.0
 50
90.0
1001
ACAD
1000
DSTYLE
1002
{
1070
   140
1040
3.175
1002
}
  0
DIMENSION
  5
C0
  8
2D_ANSICHT_4_PLATE_DIMENSI
  6
KÖRPER
 62
    18
  2
*D2
 10
65.01572204257096
 20
188.5580045266847
 30
0.0
 11
65.01572204257096
 21
164.8080045266847
 31
0.0
 70
    32
  1
95
  3
STANDARD
 13
55.95197485454349
 23
141.0580045266847
 33
0.0
 14
39.55197485454348
 24
188.5580045266847
 34
0.0
 50
90.0
1001
ACAD
1000
DSTYLE
1002
{
1070
   140
1040
3.175
1002
}
  0
DIMENSION
  5
CF
  8
2D_ANSICHT_4_PLATE_DIMENSI
  6
KÖRPER
 62
    18
  2
*D3
 10
69.08506231518358
 20
210.5580045266847
 30
0.0
 11
69.08506231518358
 21
175.8080045266847
 31
0.0
 70
    32
  1
139
  3
STANDARD
 13
55.95197485454349
 23
141.0580045266847
 33
0.0
 14
46.70197485454348
 24
210.5580045266847
 34
0.0
 50
90.0
1001
ACAD
1000
DSTYLE
1002
{
1070
   140
1040
3.175
1002
}
  0
DIMENSION
  5
DE
  8
2D_ANSICHT_4_PLATE_DIMENSI
  6
KÖRPER
 62
    18
  2
*D4
 10
35.95197485454347
 20
159.190280195193
 30
0.0
 11
30.95197485454347
 21
159.190280195193
 31
0.0
 70
    32
  1
20
  3
STANDARD
 13
25.95197485454347
 23
145.8230700487697
 33
0.0
 14
35.95197485454347
 24
155.4580045266847
 34
0.0
1001
ACAD
1000
DSTYLE
1002
{
1070
   140
1040
3.175
1002
}
  0
DIMENSION
  5
ED
  8
2D_ANSICHT_4_PLATE_DIMENSI
  6
KÖRPER
 62
    18
  2
*D5
 10
45.95197485454348
 20
166.8667186277528
 30
0.0
 11
35.95197485454348
 21
166.8667186277528
 31
0.0
 70
    32
  1
40
  3
STANDARD
 13
25.95197485454348
 23
155.4580045266847
 33
0.0
 14
45.95197485454348
 24
155.4580045266847
 34
0.0
1001
ACAD
1000
DSTYLE
1002
{
1070
   140
1040
3.175
1002
}
  0
DIMENSION
  5
FC
  8
2D_ANSICHT_4_PLATE_DIMENSI
  6
KÖRPER
 62
    18
  2
*D6
 10
38.95197485454348
 20
186.0115711041368
 30
0.0
 11
32.45197485454348
 21
186.0115711041368
 31
0.0
 70
    32
  1
26
  3
STANDARD
 13
25.95197485454348
 23
191.0024359109124
 33
0.0
 14
38.95197485454348
 24
189.1580045266847
 34
0.0
1001
ACAD
1000
DSTYLE
1002
{
1070
   140
1040
3.175
1002
}
  0
DIMENSION
  5
10B
  8
2D_ANSICHT_4_PLATE_DIMENSI
  6
KÖRPER
 62
    18
  2
*D7
 10
35.95197485454347
 20
206.0812956808293
 30
0.0
 11
30.95197485454347
 21
206.0812956808293
 31
0.0
 70
    32
  1
20
  3
STANDARD
 13
25.95197485454348
 23
210.2212445086435
 33
0.0
 14
35.95197485454347
 24
211.3080045266847
 34
0.0
1001
ACAD
1000
DSTYLE
1002
{
1070
   140
1040
3.175
1002
}
  0
DIMENSION
  5
11A
  8
2D_ANSICHT_4_PLATE_DIMENSI
  6
KÖRPER
 62
    18
  2
*D8
 10
45.95197485454348
 20
200.2083566898072
 30
0.0
 11
35.95197485454348
 21
200.2083566898072
 31
0.0
 70
    32
  1
40
  3
STANDARD
 13
25.95197485454348
 23
209.4409635694329
 33
0.0
 14
45.95197485454348
 24
211.3080045266847
 34
0.0
1001
ACAD
1000
DSTYLE
1002
{
1070
   140
1040
3.175
1002
}
  0
DIMENSION
  5
129
  8
2D_ANSICHT_4_PLATE_DIMENSI
  6
KÖRPER
 62
    18
  2
*D9
 10
55.95197485454349
 20
219.029505085147
 30
0.0
 11
40.95197485454348
 21
219.029505085147
 31
0.0
 70
    32
  1
60
  3
STANDARD
 13
25.95197485454348
 23
207.6660644595014
 33
0.0
 14
55.95197485454349
 24
207.6660644595014
 34
0.0
1001
ACAD
1000
DSTYLE
1002
{
1070
   140
1040
3.175
1002
}
  0
DIMENSION
  5
138
  8
2D_ANSICHT_4_PLATE_DIMENSI
  6
KÖRPER
 62
    18
  2
*D10
 10
74.51077140121863
 20
141.0580045266847
 30
0.0
 11
74.51077140121863
 21
178.5580045266847
 31
0.0
 70
    32
  1
150
  3
STANDARD
 13
32.96587070753817
 23
216.0580045266847
 33
0.0
 14
42.21863255468303
 24
141.0580045266847
 34
0.0
 50
90.0
1001
ACAD
1000
DSTYLE
1002
{
1070
   140
1040
3.175
1002
}
  0
TEXT
  5
147
  8
2D_ANSICHT_4_PLATE_TITLE_B
  6
ZWEISTRICHPUNKT
 62
    18
 10
36.52966135307199
 20
222.8214806964115
 30
0.0
 40
2.469444513320923
  1
Top
  0
LINE
  5
148
  8
2D_ANSICHT_4_PLATE_DRAWING
  6
KÖRPER
 62
     5
 10
29.00000000000001
 20
1.549999999999907
 30
0.0
 11
-28.99999999999999
 21
1.549999999999907
 31
0.0
  0
LINE
  5
149
  8
2D_ANSICHT_4_PLATE_DRAWING
  6
KÖRPER
 62
     5
 10
-28.99999999999999
 20
1.549999999999907
 30
0.0
 11
-28.99999999999999
 21
149.5499999999999
 31
0.0
  0
LINE
  5
14A
  8
2D_ANSICHT_4_PLATE_DRAWING
  6
KÖRPER
 62
     5
 10
-29.0
 20
1.549999999999913
 30
0.0
 11
-30.0
 21
0.5499999999999144
 31
0.0
  0
LINE
  5
14B
  8
2D_ANSICHT_4_PLATE_DRAWING
  6
KÖRPER
 62
     5
 10
-29.99999999999999
 20
150.5499999999999
 30
0.0
 11
-29.99999999999999
 21
0.5499999999999088
 31
0.0
  0
LINE
  5
14C
  8
2D_ANSICHT_4_PLATE_DRAWING
  6
KÖRPER
 62
     5
 10
-28.99999999999999
 20
149.5499999999999
 30
0.0
 11
29.00000000000001
 21
149.5499999999999
 31
0.0
  0
LINE
  5
14D
  8
2D_ANSICHT_4_PLATE_DRAWING
  6
KÖRPER
 62
     5
 10
29.00000000000001
 20
149.5499999999999
 30
0.0
 11
29.00000000000001
 21
1.549999999999907
 31
0.0
  0
LINE
  5
14E
  8
2D_ANSICHT_4_PLATE_DRAWING
  6
KÖRPER
 62
     5
 10
-29.99999999999999
 20
0.5499999999999088
 30
0.0
 11
30.00000000000001
 21
0.5499999999999088
 31
0.0
  0
LINE
  5
14F
  8
2D_ANSICHT_4_PLATE_DRAWING
  6
KÖRPER
 62
     5
 10
30.00000000000002
 20
0.5499999999999144
 30
0.0
 11
29.00000000000002
 21
1.549999999999913
 31
0.0
  0
LINE
  5
150
  8
2D_ANSICHT_4_PLATE_DRAWING
  6
KÖRPER
 62
     5
 10
-29.99999999999999
 20
150.5499999999999
 30
0.0
 11
-28.99999999999999
 21
149.5499999999999
 31
0.0
  0
LINE
  5
151
  8
2D_ANSICHT_4_PLATE_DRAWING
  6
KÖRPER
 62
     5
 10
30.00000000000001
 20
150.5499999999999
 30
0.0
 11
-29.99999999999999
 21
150.5499999999999
 31
0.0
  0
LINE
  5
152
  8
2D_ANSICHT_4_PLATE_DRAWING
  6
KÖRPER
 62
     5
 10
29.00000000000001
 20
149.5499999999999
 30
0.0
 11
30.00000000000001
 21
150.5499999999999
 31
0.0
  0
LINE
  5
153
  8
2D_ANSICHT_4_PLATE_DRAWING
  6
KÖRPER
 62
     5
 10
30.00000000000001
 20
0.5499999999999088
 30
0.0
 11
30.00000000000001
 21
150.5499999999999
 31
0.0
  0
CIRCLE
  5
154
  8
2D_ANSICHT_4_PLATE_DRAWING
  6
KÖRPER
 62
     5
 10
-10.00000000000001
 20
139.5499999999999
 30
0.0
 40
1.5
210
0.0
220
0.0
230
-1.0
  0
CIRCLE
  5
155
  8
2D_ANSICHT_4_PLATE_DRAWING
  6
KÖRPER
 62
     5
 10
-10.00000000000001
 20
30.54999999999992
 30
0.0
 40
1.199999999999999
210
0.0
220
0.0
230
-1.0
  0
CIRCLE
  5
156
  8
2D_ANSICHT_4_PLATE_DRAWING
  6
KÖRPER
 62
     5
 10
3.999999999999987
 20
95.54999999999991
 30
0.0
 40
1.199999999999989
210
0.0
220
0.0
230
-1.0
  0
CIRCLE
  5
157
  8
2D_ANSICHT_4_PLATE_DRAWING
  6
KÖRPER
 62
     5
 10
9.999999999999988
 20
30.54999999999992
 30
0.0
 40
1.199999999999999
210
0.0
220
0.0
230
-1.0
  0
CIRCLE
  5
158
  8
2D_ANSICHT_4_PLATE_DRAWING
  6
KÖRPER
 62
     5
 10
9.999999999999988
 20
139.5499999999999
 30
0.0
 40
1.5
210
0.0
220
0.0
230
-1.0
  0
DIMENSION
  5
159
  8
2D_ANSICHT_4_PLATE_DIMENSI
  6
KÖRPER
 62
    18
  2
*D11
 10
39.06374779303257
 20
30.54999999999992
 30
0.0
 11
39.06374779303257
 21
15.54999999999991
 31
0.0
 70
    32
  3
STANDARD
 13
30.00000000000001
 23
0.5499999999999088
 33
0.0
 14
11.20000000000001
 24
30.54999999999992
 34
0.0
 50
90.0
1001
ACAD
1000
DSTYLE
1002
{
1070
   140
1040
6.35
1002
}
  0
DIMENSION
  5
168
  8
2D_ANSICHT_4_PLATE_DIMENSI
  6
KÖRPER
 62
    18
  2
*D12
 10
48.12749437605496
 20
95.54999999999991
 30
0.0
 11
48.12749437605495
 21
48.04999999999991
 31
0.0
 70
    32
  3
STANDARD
 13
30.00000000000001
 23
0.5499999999999088
 33
0.0
 14
-2.799999999999989
 24
95.54999999999991
 34
0.0
 50
90.0
1001
ACAD
1000
DSTYLE
1002
{
1070
   140
1040
6.35
1002
}
  0
DIMENSION
  5
177
  8
2D_ANSICHT_4_PLATE_DIMENSI
  6
KÖRPER
 62
    18
  2
*D13
 10
56.26617492128019
 20
139.5499999999999
 30
0.0
 11
56.26617492128018
 21
70.04999999999988
 31
0.0
 70
    32
  3
STANDARD
 13
30.00000000000001
 23
0.5499999999999088
 33
0.0
 14
11.50000000000001
 24
139.5499999999999
 34
0.0
 50
90.0
1001
ACAD
1000
DSTYLE
1002
{
1070
   140
1040
6.35
1002
}
  0
DIMENSION
  5
186
  8
2D_ANSICHT_4_PLATE_DIMENSI
  6
KÖRPER
 62
    18
  2
*D14
 10
-9.999999999999988
 20
36.81455133701649
 30
0.0
 11
6.75142500000001
 21
36.81455133701649
 31
0.0
 70
    32
  3
STANDARD
 13
-30.0
 23
10.08013104416992
 33
0.0
 14
-9.999999999999988
 24
29.34999999999992
 34
0.0
1001
ACAD
1000
DSTYLE
1002
{
1070
   140
1040
6.35
1002
}
  0
DIMENSION
  5
195
  8
2D_ANSICHT_4_PLATE_DIMENSI
  6
KÖRPER
 62
    18
  2
*D15
 10
10.00000000000001
 20
52.16742820213607
 30
0.0
 11
-9.999999999999986
 21
52.16742820213607
 31
0.0
 70
    32
  3
STANDARD
 13
-29.99999999999999
 23
29.34999999999992
 33
0.0
 14
10.00000000000001
 24
29.34999999999992
 34
0.0
1001
ACAD
1000
DSTYLE
1002
{
1070
   140
1040
6.35
1002
}
  0
DIMENSION
  5
1A4
  8
2D_ANSICHT_4_PLATE_DIMENSI
  6
KÖRPER
 62
    18
  2
*D16
 10
-3.999999999999987
 20
90.45713315490416
 30
0.0
 11
13.27847500000002
 21
90.45713315490416
 31
0.0
 70
    32
  3
STANDARD
 13
-29.99999999999999
 23
100.4388627684552
 33
0.0
 14
-3.999999999999987
 24
96.74999999999991
 34
0.0
1001
ACAD
1000
DSTYLE
1002
{
1070
   140
1040
6.35
1002
}
  0
DIMENSION
  5
1B3
  8
2D_ANSICHT_4_PLATE_DIMENSI
  6
KÖRPER
 62
    18
  2
*D17
 10
-9.999999999999988
 20
130.596582308289
 30
0.0
 11
6.751425000000014
 21
130.596582308289
 31
0.0
 70
    32
  3
STANDARD
 13
-29.99999999999999
 23
138.8764799639174
 33
0.0
 14
-9.999999999999988
 24
141.0499999999999
 34
0.0
1001
ACAD
1000
DSTYLE
1002
{
1070
   140
1040
6.35
1002
}
  0
DIMENSION
  5
1C2
  8
2D_ANSICHT_4_PLATE_DIMENSI
  6
KÖRPER
 62
    18
  2
*D18
 10
10.00000000000001
 20
118.8507043262449
 30
0.0
 11
-9.999999999999986
 21
118.8507043262449
 31
0.0
 70
    32
  3
STANDARD
 13
-29.99999999999999
 23
137.3159180854963
 33
0.0
 14
10.00000000000001
 24
141.0499999999999
 34
0.0
1001
ACAD
1000
DSTYLE
1002
{
1070
   140
1040
6.35
1002
}
  0
DIMENSION
  5
1D1
  8
2D_ANSICHT_4_PLATE_DIMENSI
  6
KÖRPER
 62
    18
  2
*D19
 10
30.00000000000001
 20
156.4930011169245
 30
0.0
 11
0.0000000000000142
 21
156.4930011169245
 31
0.0
 70
    32
  3
STANDARD
 13
-29.99999999999999
 23
133.7661198656333
 33
0.0
 14
30.00000000000001
 24
133.7661198656333
 34
0.0
1001
ACAD
1000
DSTYLE
1002
{
1070
   140
1040
6.35
1002
}
  0
DIMENSION
  5
1E0
  8
2D_ANSICHT_4_PLATE_DIMENSI
  6
KÖRPER
 62
    18
  2
*D20
 10
67.11759309335031
 20
0.5499999999999048
 30
0.0
 11
67.11759309335031
 21
75.54999999999987
 31
0.0
 70
    32
  3
STANDARD
 13
-15.9722082940106
 23
150.5499999999999
 33
0.0
 14
2.533315400279128
 24
0.5499999999999088
 34
0.0
 50
90.0
1001
ACAD
1000
DSTYLE
1002
{
1070
   140
1040
6.35
1002
}
  0
TEXT
  5
1EF
  8
2D_ANSICHT_4_PLATE_TITLE_B
  6
ZWEISTRICHPUNKT
 62
    18
 10
-8.844627002942966
 20
164.0769523394534
 30
0.0
 40
9.877778053283691
  1
Top
  0
ENDSEC
  0
EOF
